<svg width="338" height="58" viewBox="0 0 338 58" fill="none" xmlns="http://www.w3.org/2000/svg">
<path d="M49.0787 0.0921841L46.9187 12.5722H24.3587L22.5987 22.4922H39.1587L37.0787 34.4122H20.5187L16.5987 56.4922H0.83869L10.8387 0.0921841H49.0787ZM71.3624 0.0921841L61.4424 56.4922H45.6824L55.6824 0.0921841H71.3624ZM122.772 0.0921841L120.532 12.5722H105.572L97.8118 56.4922H82.0518L89.8118 12.5722H74.9318L77.1718 0.0921841H122.772ZM165.213 14.8922C164.626 18.1989 163.24 20.9455 161.053 23.1322C158.92 25.2655 156.306 26.8122 153.213 27.7722C155.826 28.1989 157.96 29.4789 159.613 31.6122C161.266 33.6922 162.093 36.1722 162.093 39.0522C162.093 39.9055 162.013 40.7322 161.853 41.5322C161.373 44.3589 160.2 46.9189 158.333 49.2122C156.52 51.4522 154.12 53.2389 151.133 54.5722C148.146 55.8522 144.786 56.4922 141.053 56.4922H120.253L130.173 0.732185H150.173C155.186 0.732185 158.973 1.79885 161.533 3.93219C164.146 6.06552 165.453 8.83885 165.453 12.2522C165.453 13.1055 165.373 13.9855 165.213 14.8922ZM157.693 15.7722C157.8 15.2922 157.853 14.6255 157.853 13.7722C157.853 11.4789 157.053 9.69219 155.453 8.41219C153.853 7.13219 151.533 6.49219 148.493 6.49219H136.413L133.133 24.9722H145.373C148.733 24.9722 151.506 24.1722 153.693 22.5722C155.88 20.9189 157.213 18.6522 157.693 15.7722ZM154.653 40.8122C154.813 40.0655 154.893 39.3722 154.893 38.7322C154.893 36.2789 153.986 34.3322 152.173 32.8922C150.36 31.4522 147.88 30.7322 144.733 30.7322H132.093L128.573 50.7322H141.453C145.026 50.7322 147.986 49.8522 150.333 48.0922C152.68 46.3322 154.12 43.9055 154.653 40.8122ZM194.756 57.0522C190.116 57.0522 186.036 56.0922 182.516 54.1722C178.996 52.1989 176.249 49.4522 174.276 45.9322C172.356 42.4122 171.396 38.3855 171.396 33.8522C171.396 27.5589 172.809 21.8522 175.636 16.7322C178.516 11.5589 182.462 7.50552 187.476 4.57218C192.489 1.58552 198.089 0.0921841 204.276 0.0921841C208.969 0.0921841 213.076 1.07885 216.596 3.05218C220.169 4.97218 222.916 7.69218 224.836 11.2122C226.756 14.6789 227.716 18.6789 227.716 23.2122C227.716 29.5589 226.276 35.3189 223.396 40.4922C220.569 45.6122 216.649 49.6655 211.636 52.6522C206.622 55.5855 200.996 57.0522 194.756 57.0522ZM195.796 50.4922C200.489 50.4922 204.676 49.2922 208.356 46.8922C212.089 44.4389 214.996 41.1589 217.076 37.0522C219.156 32.9455 220.196 28.4922 220.196 23.6922C220.196 18.4122 218.676 14.2522 215.636 11.2122C212.596 8.17218 208.462 6.65219 203.236 6.65219C198.542 6.65219 194.329 7.87885 190.596 10.3322C186.916 12.7322 184.036 15.9855 181.956 20.0922C179.929 24.1455 178.916 28.5722 178.916 33.3722C178.916 38.6522 180.409 42.8389 183.396 45.9322C186.436 48.9722 190.569 50.4922 195.796 50.4922ZM259.486 0.732185C267.433 0.732185 273.593 2.65219 277.966 6.49219C282.393 10.3322 284.606 15.6655 284.606 22.4922C284.606 24.6255 284.42 26.7055 284.046 28.7322C283.033 34.4389 280.953 39.3989 277.806 43.6122C274.713 47.7722 270.74 50.9722 265.886 53.2122C261.086 55.3989 255.646 56.4922 249.566 56.4922H232.206L242.126 0.732185H259.486ZM250.606 50.8922C257.753 50.8922 263.566 48.9455 268.046 45.0522C272.526 41.1055 275.38 35.6655 276.606 28.7322C276.926 26.8122 277.086 24.9989 277.086 23.2922C277.086 18.0122 275.513 13.9322 272.366 11.0522C269.22 8.11885 264.58 6.65219 258.446 6.65219H248.366L240.526 50.8922H250.606ZM337.729 0.732185L313.409 35.4522L309.649 56.4922H302.369L306.129 35.4522L293.969 0.732185H302.129L310.849 28.8122L329.489 0.732185H337.729Z" fill="#E2F163"/>
</svg>
