<svg width="271" height="126" viewBox="0 0 271 126" fill="none" xmlns="http://www.w3.org/2000/svg">
<path d="M125.85 41.2024H69.408L65.8346 55.8793H122.276L113.998 90.4975H57.5533L49.2751 125.49H0.922852L31.0248 0H135.819L125.85 41.2024Z" fill="#896CFE"/>
<path d="M230.473 0C251.357 0 257.567 1.12828 263.774 5.45594C268.479 8.84078 270.924 14.6738 270.924 22.2009C270.924 34.241 264.717 47.7897 256.062 54.1853C251.545 57.5702 245.715 59.8298 236.306 61.8978L236.117 62.649C244.961 63.9658 246.841 64.5315 249.851 66.2255C255.307 69.6103 258.13 74.6891 258.13 82.0307C258.13 97.8359 248.534 114.204 235.363 120.788C228.59 123.987 219.372 125.493 203.944 125.493H122.102L152.204 0.00309066H230.473V0Z" fill="#896CFE"/>
<path d="M222.929 60.7171C218.397 59.9938 214.447 57.3384 212.038 53.5146L205.853 66.5069C209.977 70.275 215.161 72.8345 220.845 73.7433C224.443 74.3183 227.825 71.8701 228.4 68.272C228.978 64.6738 226.527 61.2921 222.929 60.7171Z" fill="#E2F163"/>
<path d="M174.169 87.7597C176.685 86.8231 179.232 85.4722 181.621 83.6113C180.558 82.9251 179.597 82.1955 178.743 81.4197C176.762 79.6206 175.352 77.6144 174.41 75.6268C174.026 74.82 173.723 74.0225 173.476 73.2373C172.839 73.7288 172.187 74.1492 171.51 74.514C170.091 75.2775 168.574 75.7999 167.009 76.1276C165.448 76.4552 163.847 76.5881 162.339 76.5881C160.193 76.5881 158.237 76.3192 156.873 76.0534C156.19 75.9205 155.659 75.7906 155.319 75.701C155.149 75.6577 155.031 75.6206 154.963 75.6021L154.907 75.5866H154.904C151.448 74.4892 147.748 76.3872 146.629 79.8432C145.507 83.3084 147.411 87.0271 150.876 88.1492C151.081 88.2141 152.339 88.6128 154.348 89.0054C156.357 89.3949 159.114 89.7813 162.336 89.7844C164.351 89.7844 166.546 89.6329 168.852 89.2125C170.58 88.8972 172.366 88.4336 174.169 87.7597Z" fill="#E2F163"/>
<path d="M223.641 103.837H217.125C217.236 103.407 217.307 102.962 217.332 102.502C217.338 102.4 217.354 102.044 217.354 101.478C217.354 100.152 217.27 97.6701 216.732 94.5418C216.327 92.1956 215.666 89.4877 214.556 86.6377C213.725 84.5017 212.637 82.2853 211.202 80.1091C210.127 78.48 208.856 76.8726 207.363 75.361C205.125 73.0921 202.374 71.0365 199.113 69.4322C199.082 69.4167 199.048 69.4012 199.014 69.3858L209.604 47.1416L210.099 45.9639C212.21 40.9222 209.833 35.1262 204.791 33.0149C204.083 32.7182 203.36 32.5142 202.634 32.3905C202.012 32.1587 201.372 32.0258 200.732 31.9856C200.581 31.9547 200.42 31.9238 200.244 31.8898C198.794 31.6177 196.572 31.3086 193.799 31.3086C190.105 31.3055 185.4 31.8619 180.179 33.7445C174.958 35.6208 169.252 38.8325 163.58 43.9577C160.875 46.3967 160.661 50.5698 163.1 53.2745C165.539 55.9793 169.712 56.1926 172.417 53.7537C176.884 49.729 181.029 47.4662 184.652 46.1556C186.059 45.6486 187.388 45.29 188.63 45.0365L179.45 64.409C179.443 64.4306 179.437 64.4584 179.428 64.4986C179.403 64.613 179.363 64.8047 179.323 65.0581C179.243 65.5682 179.156 66.3255 179.156 67.2312C179.156 68.2513 179.264 69.4507 179.595 70.6934C179.926 71.9391 180.467 73.222 181.351 74.4801C181.941 75.3178 182.686 76.1493 183.648 76.9499C184.702 77.8278 186.028 78.6717 187.703 79.429C189.329 79.7505 190.751 80.1864 192.009 80.6964C193.465 81.2899 194.702 81.9885 195.783 82.7644C197.672 84.1215 199.11 85.7196 200.26 87.4816C201.119 88.8015 201.805 90.2142 202.343 91.6299C203.15 93.7536 203.62 95.8927 203.87 97.667C204.123 99.4383 204.161 100.839 204.161 101.482C204.161 101.642 204.157 101.754 204.157 101.815L204.154 101.865H204.157C204.127 102.548 204.201 103.21 204.365 103.84H170.918C169.552 103.84 168.445 104.947 168.445 106.313C168.445 107.679 169.552 108.786 170.918 108.786H223.644C225.011 108.786 226.117 107.679 226.117 106.313C226.114 104.944 225.008 103.837 223.641 103.837Z" fill="#E2F163"/>
<path d="M158.923 103.831H152.966C151.6 103.831 150.493 104.938 150.493 106.304C150.493 107.67 151.6 108.777 152.966 108.777H158.923C160.289 108.777 161.396 107.67 161.396 106.304C161.396 104.938 160.289 103.831 158.923 103.831Z" fill="#E2F163"/>
<path d="M210.741 31.6417C215.087 31.6417 218.611 28.1181 218.611 23.7715C218.611 19.425 215.087 15.9014 210.741 15.9014C206.394 15.9014 202.871 19.425 202.871 23.7715C202.871 28.1181 206.394 31.6417 210.741 31.6417Z" fill="#E2F163"/>
</svg>
